<svg xmlns="http://www.w3.org/2000/svg" width="32" height="32" fill="none" viewBox="0 0 32 32"><ellipse cx="5.944" cy="8.025" fill="#fff" opacity=".25" rx=".693" ry=".693"/><ellipse cx="5.944" cy="11.492" fill="#fff" opacity=".25" rx=".693" ry=".693"/><ellipse cx="8.421" cy="6.291" fill="#fff" opacity=".25" rx=".693" ry=".693"/><ellipse cx="8.421" cy="9.759" fill="#fff" rx="1.238" ry="1.238"/><ellipse cx="8.421" cy="13.226" fill="#fff" opacity=".25" rx=".693" ry=".693"/><ellipse cx="8.421" cy="16.694" fill="#fff" opacity=".25" rx=".693" ry=".693"/><circle cx="10.898" cy="8.025" r=".991" fill="#fff" opacity=".75"/><circle cx="10.898" cy="11.492" r="1.238" fill="#fff"/><ellipse cx="10.898" cy="14.96" fill="#fff" opacity=".75" rx=".991" ry=".991"/><circle cx="10.898" cy="18.427" r=".842" fill="#fff" opacity=".5"/><circle cx="10.898" cy="21.895" r=".693" fill="#fff" opacity=".25"/><ellipse cx="13.375" cy="9.759" fill="#fff" opacity=".25" rx=".693" ry=".693"/><ellipse cx="13.375" cy="13.226" fill="#fff" opacity=".75" rx=".991" ry=".991"/><circle cx="13.375" cy="16.694" r="1.238" fill="#fff"/><ellipse cx="13.375" cy="20.161" fill="#fff" rx="1.238" ry="1.238"/><circle cx="13.375" cy="23.628" r=".991" fill="#fff" opacity=".75"/><circle cx="13.375" cy="27.096" r=".693" fill="#fff" opacity=".25"/><circle cx="15.851" cy="18.427" r=".842" fill="#fff" opacity=".5"/><circle cx="15.851" cy="21.895" r=".991" fill="#fff" opacity=".75"/><circle cx="15.851" cy="25.362" r="1.238" fill="#fff"/><circle cx="15.851" cy="28.83" r=".991" fill="#fff" opacity=".75"/><ellipse cx="18.328" cy="16.694" fill="#fff" opacity=".25" rx=".693" ry=".693"/><ellipse cx="18.328" cy="20.161" fill="#fff" opacity=".5" rx=".842" ry=".842"/><ellipse cx="18.328" cy="23.628" fill="#fff" rx="1.238" ry="1.238"/><ellipse cx="18.328" cy="27.096" fill="#fff" opacity=".25" rx=".693" ry=".693"/><ellipse cx="20.805" cy="8.025" fill="#fff" opacity=".5" rx=".842" ry=".842"/><ellipse cx="20.805" cy="11.492" fill="#fff" opacity=".75" rx=".991" ry=".991"/><ellipse cx="20.805" cy="14.96" fill="#fff" opacity=".75" rx=".991" ry=".991"/><ellipse cx="20.805" cy="18.427" fill="#fff" rx="1.238" ry="1.238"/><ellipse cx="20.805" cy="21.895" fill="#fff" opacity=".5" rx=".842" ry=".842"/><ellipse cx="23.282" cy="6.291" fill="#fff" opacity=".25" rx=".693" ry=".693"/><ellipse cx="23.282" cy="9.759" fill="#fff" rx="1.238" ry="1.238"/><ellipse cx="23.282" cy="13.226" fill="#fff" rx="1.238" ry="1.238"/><ellipse cx="23.282" cy="16.693" fill="#fff" opacity=".75" rx=".991" ry=".991"/><ellipse cx="23.282" cy="20.161" fill="#fff" opacity=".25" rx=".693" ry=".693"/><circle cx="25.759" cy="8.025" r=".842" fill="#fff" opacity=".5"/><circle cx="25.759" cy="11.492" r=".842" fill="#fff" opacity=".5"/><ellipse cx="25.759" cy="14.96" fill="#fff" opacity=".25" rx=".693" ry=".693"/></svg>